<svg version="1.2" xmlns="http://www.w3.org/2000/svg" viewBox="0 0 216 72" width="216" height="72">
	<title>TAM-PrimaryMarkB-white-svg</title>
	<style>
		.s0 { fill: #ffffff } 
		.s1 { fill: #b1b3b6 } 
		.s2 { fill: #31beb5 } 
	</style>
	<path id="Layer" class="s0" d="m58.5 22.5h0.7v27h-0.7z"/>
	<path id="Layer" class="s0" d="m46.8 31.6h0.3v0.3 1.5 0.3h-0.3-0.6v6.4h0.6 0.3v0.3 1.5 0.3h-0.3-3.2-0.3v-0.3-1.5-0.3h0.3 0.5v-4.6l-2.4 5-0.3 0.5-0.2-0.5-2.4-5v4.6h0.5 0.3v0.3 1.5 0.3h-0.3-3.2-0.3v-0.3-1.5-0.3h0.3 0.5v-6.4h-0.4-0.3v-0.3-1.5-0.3h0.3 2.8 0.2l0.1 0.1 2.1 4.5 2.2-4.5 0.1-0.1h0.1 3z"/>
	<path id="Layer" fill-rule="evenodd" class="s0" d="m28.4 40.1v2h-4.1v-2h0.6l-0.4-1.1h-3.4l-0.5 1.1h0.6v2.1h-4v-2.1h1.1l2.8-6.5h-0.6v-2h4.5v2h-0.6l2.8 6.5zm-5.5-5l-0.8 1.8h1.5z"/>
	<path id="Layer" class="s0" d="m43.4 23.5h0.3v0.4 6 0.3h-0.3-3.9-0.4v-0.3-2.3h-4.8v16h2.3 0.3v0.3 3.9 0.3h-0.3-9-0.3v-0.3-3.9-0.3h0.3 2.2v-16h-4.8v2.3 0.3h-0.3-3.9-0.3v-0.3-6-0.4h0.3 22.6z"/>
	<path id="Layer" class="s1" d="m35 45.4l1-1v2.7l-1-0.9v-0.8z"/>
	<path id="Layer" class="s1" d="m33.4 44.5l-0.9 1v-19.7l0.9 0.9v17.8z"/>
	<path id="Layer" class="s1" d="m22.4 25.4l-1-0.9h20.9l-1.3 0.9h-18.6z"/>
	<path id="Layer" class="s1" d="m42.8 29.3l-1-0.9v-2.4l1-1v4.3z"/>
	<path id="Layer" class="s0" d="m84.2 27.6h-1q0-0.3-0.1-0.5 0-0.3-0.1-0.5-0.1-0.3-0.2-0.5-0.1-0.3-0.2-0.5-0.1-0.1-0.2-0.3-0.1-0.1-0.2-0.2-0.2-0.1-0.3-0.2-0.1 0-0.3-0.1-0.1 0-0.3 0-0.1-0.1-0.3-0.1-0.1 0-0.3 0-0.1 0-0.3 0h-1.8v10.5q0 0.1 0 0.2 0 0.2 0.1 0.3 0 0.1 0 0.2 0 0.2 0.1 0.3 0 0.1 0.1 0.2 0 0 0.1 0.1 0.1 0.1 0.2 0.1 0.1 0.1 0.1 0.1 0.2 0.1 0.4 0.1 0.2 0 0.3 0.1 0.2 0 0.4 0 0.1 0 0.3 0v1h-7.2v-1q0.3 0 0.5 0 0.2 0 0.4 0 0.2-0.1 0.4-0.2 0.3-0.1 0.4-0.2 0.1-0.1 0.2-0.3 0.1-0.1 0.2-0.3 0-0.2 0-0.3 0-0.2 0-0.4v-10.5h-1.5q-0.2 0-0.4 0-0.2 0-0.3 0-0.2 0.1-0.4 0.1-0.2 0-0.4 0-0.1 0.1-0.3 0.2-0.1 0-0.3 0.1-0.1 0.1-0.2 0.3-0.1 0.1-0.2 0.2-0.1 0.3-0.2 0.5-0.1 0.2-0.2 0.5 0 0.2-0.1 0.5 0 0.3 0 0.5h-1v-4.1h14.1z"/>
	<path id="Layer" class="s0" d="m98.1 33.1l-0.1 4.7h-12.7v-1q0.2 0.1 0.4 0.1 0.2-0.1 0.5-0.1 0.2 0 0.4-0.1 0.2-0.1 0.4-0.2 0.1-0.2 0.2-0.3 0-0.2 0.1-0.4 0-0.1 0.1-0.3 0-0.2 0-0.4v-9q0-0.1 0-0.2 0-0.1-0.1-0.3 0-0.1 0-0.2 0-0.1-0.1-0.3 0 0-0.1-0.1 0-0.1-0.1-0.2-0.1 0-0.1-0.1-0.1-0.1-0.2-0.1-0.2 0-0.4-0.1-0.1 0-0.3-0.1-0.2 0-0.4 0-0.1 0-0.3 0v-1h11.8l0.2 3.7h-1q0-0.2-0.1-0.4-0.1-0.3-0.2-0.5-0.1-0.2-0.2-0.4-0.1-0.2-0.2-0.4-0.1-0.2-0.2-0.3-0.1-0.1-0.3-0.2-0.1 0-0.2-0.1-0.2-0.1-0.3-0.1-0.2 0-0.4-0.1-0.2 0-0.4 0-0.2 0-0.4 0-0.2 0-0.4 0h-2.6v5h1.4q0.2 0 0.3 0 0.1 0 0.3 0 0.1 0 0.3 0 0.1-0.1 0.2-0.1 0.1 0 0.2-0.1 0.1 0 0.2-0.1 0-0.1 0.1-0.1 0-0.1 0.1-0.2 0-0.1 0-0.3 0.1-0.1 0.1-0.3 0-0.1 0-0.3 0.1-0.1 0.1-0.3h1v4.8h-1q0-0.2-0.1-0.3 0-0.2 0-0.3 0-0.1-0.1-0.3 0-0.1 0-0.3-0.1-0.1-0.1-0.1-0.1-0.1-0.2-0.2 0 0-0.1-0.1-0.1 0-0.2-0.1-0.1 0-0.3 0-0.1-0.1-0.2-0.1-0.2 0-0.3 0-0.1 0-0.3 0h-1.4v3.5c0 0.6 0 1 0 1.2q0 0.1 0 0.2 0 0.1 0 0.2 0.1 0.1 0.1 0.1 0.1 0.1 0.1 0.2 0.1 0.1 0.1 0.1 0.1 0.1 0.2 0.1 0 0.1 0.1 0.1 0.1 0 0.2 0 0.1 0.1 0.3 0.1 0.1 0 0.3 0 0.1 0.1 0.3 0.1 0.1 0 0.3 0h1.1q0.2 0 0.4 0 0.2 0 0.4-0.1 0.2 0 0.3 0 0.2-0.1 0.4-0.1 0.2-0.1 0.4-0.2 0.2-0.1 0.3-0.2 0.2-0.1 0.3-0.3 0.2-0.1 0.3-0.3 0.2-0.2 0.3-0.5 0.2-0.3 0.3-0.6 0.1-0.3 0.2-0.6 0-0.3 0.1-0.7z"/>
	<path id="Layer" fill-rule="evenodd" class="s0" d="m128.3 36.7q0.1 0.1 0.2 0.1 0.2 0 0.3 0 0.1 0 0.3 0v1h-6.8v-1q0.2 0 0.4 0 0.1 0 0.3 0 0.1-0.1 0.3-0.1 0.1 0 0.3-0.1 0.1 0 0.1 0 0.1-0.1 0.2-0.2 0 0 0.1-0.1 0-0.1 0-0.2 0-0.1 0-0.2 0-0.1-0.1-0.1 0-0.1 0-0.2 0-0.1-0.1-0.2l-0.6-1.7h-4.7l-0.3 1q-0.1 0.1-0.1 0.3-0.1 0.1-0.1 0.2 0 0.2-0.1 0.3 0 0.2 0 0.3 0 0.1 0 0.3 0 0.1 0.1 0.2 0.1 0.1 0.2 0.2 0.1 0.1 0.2 0.1 0.1 0.1 0.3 0.1 0.1 0 0.2 0 0.2 0.1 0.3 0.1 0.2 0 0.3 0v1h-12v-1h0.6q0.1 0 0.3 0 0.1 0 0.2-0.1 0.1 0 0.3 0 0.1 0 0.2-0.1 0.1 0 0.2 0 0.1-0.1 0.1-0.2 0.1-0.1 0.1-0.2 0.1-0.1 0-0.2 0-0.1 0-0.3-0.1-0.1-0.2-0.2 0-0.2-0.1-0.3-0.1-0.1-0.2-0.2l-2.3-3-2.2 2.7q-0.2 0.1-0.3 0.3-0.1 0.1-0.2 0.3-0.1 0.2-0.2 0.4-0.1 0.2-0.1 0.4 0 0 0 0.1 0 0.1 0 0.2 0.1 0.1 0.1 0.1 0.1 0.1 0.1 0.1 0.1 0.1 0.2 0.1 0.1 0.1 0.1 0.1 0.1 0 0.2 0.1 0.1 0 0.2 0 0.1 0 0.2 0 0.2 0 0.3 0 0.1 0 0.2 0 0.2 0 0.3 0v1h-6.3v-1q0.2 0 0.3 0 0.2 0 0.3-0.1 0.2 0 0.3 0 0.2-0.1 0.3-0.1 0.2-0.1 0.3-0.2 0.2 0 0.4-0.1 0.1-0.1 0.2-0.2 0.2-0.1 0.3-0.3 0.3-0.2 0.5-0.4 0.2-0.2 0.4-0.5 0.2-0.2 0.4-0.4 0.3-0.3 0.5-0.5l2.5-3-3.4-4.5q-0.8-1.1-1.2-1.4-0.1-0.1-0.1-0.2-0.1-0.1-0.2-0.1-0.1-0.1-0.3-0.1-0.1-0.1-0.2-0.1-0.1-0.1-0.3-0.1-0.2 0-0.3-0.1-0.2 0-0.4 0-0.1 0-0.3 0v-1h7.8v1h-0.5q-0.2 0-0.3 0-0.1 0-0.2 0-0.1 0-0.2 0.1-0.1 0-0.2 0-0.1 0-0.2 0.1 0 0-0.1 0.1 0 0.1 0 0.1-0.1 0.1 0 0.2 0 0.1 0.1 0.3 0 0.1 0.1 0.3 0.1 0.1 0.2 0.3 0.1 0.1 0.2 0.2l2 2.6 2.3-2.6q0.3-0.4 0.4-0.6 0 0 0-0.1 0 0 0-0.1 0-0.1 0-0.1 0.1-0.1 0-0.1 0.1-0.1 0-0.2 0 0 0-0.1 0-0.1-0.1-0.1 0-0.1-0.1-0.1-0.1-0.1-0.3-0.1-0.1 0-0.2 0-0.1-0.1-0.3-0.1-0.1 0-0.2 0h-0.5v-1h5.9v1q-0.2 0-0.4 0-0.1 0.1-0.3 0.1-0.2 0-0.4 0.1-0.1 0-0.3 0.1-0.1 0.1-0.3 0.1-0.1 0.1-0.2 0.2-0.2 0.1-0.3 0.2-0.1 0.1-0.2 0.2-0.4 0.4-1.3 1.4l-2.5 2.9 3.5 4.5q0.1 0.2 0.3 0.4 0.1 0.2 0.3 0.4 0.1 0.2 0.3 0.4 0.2 0.2 0.3 0.4 0.1 0.1 0.3 0.2 0.1 0.1 0.2 0.2 0.1 0.1 0.3 0.2 0.1 0.1 0.2 0.1 0.1 0.1 0.2 0.1 0.1 0 0.2 0.1 0.1 0 0.2 0 0.1 0 0.2 0 0 0 0.1 0 0.1 0 0.1 0 0.1-0.1 0.1-0.1 0.1 0 0.1 0 0.2-0.1 0.3-0.2 0.1-0.1 0.2-0.2 0.1-0.1 0.2-0.2 0.1-0.1 0.1-0.3 0.1-0.2 0.2-0.4 0.2-0.2 0.3-0.4 0.1-0.2 0.1-0.5 0.1-0.2 0.2-0.4l4.1-10.8h1l4.4 11.1q0.5 1.2 0.7 1.6 0 0.1 0.1 0.2 0.1 0.1 0.1 0.2 0.1 0 0.2 0.1 0.1 0.1 0.2 0.1 0.1 0.1 0.3 0.1zm-5.4-3.9l-2-5-1.9 5z"/>
	<path id="Layer" class="s0" d="m139.9 33.6q0 0.2-0.1 0.3 0 0.2 0 0.4 0 0.2-0.1 0.3 0 0.2-0.1 0.3-0.1 0.2-0.2 0.4-0.1 0.2-0.2 0.4-0.1 0.2-0.2 0.3-0.1 0.2-0.3 0.3-0.1 0.2-0.3 0.4-0.1 0.1-0.3 0.3-0.2 0.1-0.4 0.2-0.2 0.1-0.4 0.2-0.2 0.1-0.4 0.2-0.3 0.1-0.5 0.1-0.3 0.1-0.6 0.1-0.2 0-0.5 0-0.3 0-0.5 0-0.3 0-0.6-0.1-0.3 0-0.5-0.1-0.3-0.1-0.6-0.2-0.3-0.2-0.5-0.3-0.3-0.2-0.5-0.3-0.2-0.2-0.4-0.4-0.3-0.2-0.4-0.5-0.1 0.2-0.2 0.4 0 0.1-0.1 0.3 0 0.2-0.1 0.4 0 0.1-0.1 0.3h-0.9v-4.8h0.9q0.1 0.3 0.2 0.5 0.1 0.3 0.1 0.5 0.1 0.3 0.2 0.5 0.1 0.3 0.2 0.5 0.2 0.2 0.3 0.4 0.2 0.2 0.3 0.4 0.2 0.2 0.4 0.4 0.1 0.2 0.3 0.3 0.3 0.2 0.5 0.3 0.2 0.1 0.5 0.2 0.2 0.1 0.5 0.1 0.3 0.1 0.5 0.1 0.3 0 0.5-0.1 0.2 0 0.5-0.1 0.2 0 0.4-0.2 0.2-0.1 0.3-0.2 0.3-0.2 0.4-0.5 0.2-0.3 0.2-0.6 0.1-0.3 0.1-0.6-0.1-0.4-0.2-0.6-0.1-0.1-0.1-0.2-0.1-0.1-0.2-0.2 0-0.1-0.1-0.2-0.1 0-0.2-0.1-0.1-0.1-0.2-0.2-0.1-0.1-0.3-0.1-0.1-0.1-0.2-0.2-0.2-0.1-0.3-0.1-0.6-0.4-1.5-0.7-0.2-0.2-0.5-0.3-0.3-0.1-0.5-0.3-0.3-0.1-0.5-0.3-0.3-0.2-0.5-0.3-0.2-0.2-0.4-0.3-0.1-0.1-0.3-0.3-0.2-0.1-0.3-0.3-0.1-0.2-0.3-0.3-0.1-0.1-0.1-0.3-0.1-0.1-0.2-0.2-0.1-0.2-0.1-0.3-0.1-0.2-0.2-0.3 0-0.1 0-0.3 0-0.1-0.1-0.2 0-0.1 0-0.3 0-0.1 0-0.2 0-0.3 0-0.5 0.1-0.2 0.1-0.5 0.1-0.2 0.2-0.4 0.1-0.2 0.2-0.5 0.1-0.2 0.3-0.4 0.2-0.2 0.3-0.4 0.2-0.2 0.4-0.4 0.2-0.1 0.5-0.3 0.2-0.1 0.5-0.2 0.3-0.1 0.6-0.2 0.3-0.1 0.5-0.1 0.3 0 0.6 0 0.3 0 0.5 0 0.3 0 0.5 0.1 0.2 0 0.5 0.1 0.2 0.1 0.4 0.2 0.2 0.1 0.4 0.2 0.2 0.2 0.4 0.3 0.2 0.2 0.4 0.3 0.2 0.2 0.3 0.4 0.1-0.1 0.2-0.3 0-0.1 0.1-0.3 0-0.2 0-0.3 0.1-0.2 0.1-0.3h1v3.9h-1q-1-3.2-3.6-3.2-0.2 0-0.4 0-0.2 0-0.4 0.1-0.2 0.1-0.4 0.2-0.1 0.1-0.3 0.2-0.1 0.1-0.2 0.2-0.1 0.2-0.2 0.4-0.1 0.1-0.1 0.3-0.1 0.2-0.1 0.3 0 0.2 0.1 0.3 0 0.2 0 0.3 0.1 0.1 0.1 0.3 0.1 0.1 0.2 0.2 0.1 0.1 0.2 0.2 0.1 0.1 0.2 0.2 0.1 0.1 0.3 0.2 0.1 0.1 0.2 0.2 0.6 0.3 1.9 0.9 0.3 0.1 0.6 0.3 0.3 0.1 0.6 0.3 0.3 0.1 0.6 0.3 0.3 0.2 0.6 0.3 0.2 0.2 0.4 0.3 0.2 0.2 0.4 0.4 0.2 0.1 0.3 0.3 0.2 0.2 0.4 0.4 0.1 0.2 0.2 0.5 0.1 0.2 0.2 0.4 0.1 0.3 0.1 0.6 0.1 0.2 0.1 0.5z"/>
	<path id="Layer" fill-rule="evenodd" class="s0" d="m161.7 37.8h-6.7v-1q0.2 0 0.3 0 0.2 0 0.3 0 0.2 0 0.3 0 0.2 0 0.3-0.1 0.1 0 0.2-0.1 0.1 0 0.1-0.1 0.1-0.1 0.1-0.2 0-0.1 0-0.1 0-0.1 0-0.2 0-0.1 0-0.2 0-0.1 0-0.1-0.1-0.1-0.1-0.2l-0.7-1.7h-4.6l-0.4 1q0 0.1-0.1 0.2 0 0.2-0.1 0.3 0 0.1 0 0.3 0 0.1-0.1 0.3 0 0.1 0.1 0.2 0 0.2 0.1 0.3 0 0.1 0.1 0.2 0.1 0 0.2 0.1 0.2 0 0.3 0.1 0.2 0 0.3 0 0.1 0 0.3 0 0.1 0.1 0.3 0.1v1h-4.9v-1q0.1 0 0.2-0.1 0.1 0 0.3 0 0.1 0 0.2-0.1 0.1 0 0.3-0.1 0.1 0 0.2-0.1 0.1-0.1 0.2-0.2 0.1-0.1 0.2-0.3 0.1-0.1 0.2-0.2 0.1-0.2 0.2-0.4 0.1-0.2 0.2-0.5 0.1-0.2 0.2-0.4 0.1-0.2 0.2-0.5l4.1-10.7h1l4.3 11.1q0.5 1.1 0.7 1.6 0.1 0.1 0.1 0.2 0.1 0 0.2 0.1 0 0.1 0.1 0.2 0.1 0 0.2 0.1 0.1 0.1 0.3 0.1 0.1 0.1 0.3 0.1 0.1 0 0.2 0 0.2 0 0.3 0zm-6.3-5l-2-5-1.8 5z"/>
	<path id="Layer" class="s0" d="m192.8 37.8h-7.1v-1q0.1 0 0.3 0 0.2 0 0.4 0 0.1 0 0.3 0 0.2-0.1 0.3-0.1 0.1-0.1 0.2-0.1 0.1-0.1 0.2-0.2 0 0 0.1-0.1 0.1-0.1 0.1-0.2 0-0.1 0.1-0.2 0-0.1 0-0.3 0-0.1 0-0.2 0-0.2 0-0.3v-9l-5.4 11.6h-0.6l-5.5-11.6v8.5q0 0.2 0 0.3 0 0.1 0 0.2 0 0.2 0 0.3 0 0.1 0 0.2 0 0.1 0.1 0.2 0 0.1 0 0.2 0 0 0.1 0.1 0 0.1 0.1 0.1 0 0.1 0.1 0.2 0.1 0 0.2 0.1 0 0 0.1 0.1 0.1 0 0.2 0 0.1 0 0.3 0.1 0.1 0 0.3 0 0.1 0 0.3 0 0.1 0 0.3 0v1h-5.3v-1q0.1 0 0.3 0 0.1 0 0.3 0 0.1 0 0.3 0 0.1-0.1 0.3-0.1 0.1 0 0.1-0.1 0.1 0 0.2 0 0.1-0.1 0.2-0.1 0-0.1 0.1-0.2 0 0 0.1-0.1 0-0.1 0-0.2 0.1 0 0.1-0.1 0-0.1 0-0.2 0-0.1 0-0.2 0-0.2 0-0.3 0-0.1 0-0.2 0-0.2 0-0.3v-8q0-0.1 0-0.3 0-0.2 0-0.3 0-0.2 0-0.3-0.1-0.2-0.1-0.4 0-0.1-0.1-0.2 0-0.1-0.1-0.1 0-0.1-0.1-0.2-0.1 0-0.2-0.1-0.2 0-0.4-0.1-0.1 0-0.3-0.1-0.2 0-0.4 0-0.2 0-0.4 0v-1h5.3l4.8 10.1 4.7-10h5.2v1q-0.3-0.1-0.5-0.1-0.2 0-0.4 0.1-0.2 0-0.4 0.1-0.3 0.1-0.4 0.2-0.1 0.2-0.2 0.3-0.1 0.2-0.2 0.3 0 0.2 0 0.4 0 0.2 0 0.3v9q0 0.1 0 0.3 0 0.1 0 0.2 0 0.1 0 0.2 0.1 0.2 0.1 0.3 0.1 0.1 0.1 0.1 0.1 0.1 0.1 0.2 0.1 0.1 0.2 0.1 0.1 0.1 0.2 0.1 0.2 0.1 0.3 0.1 0.2 0.1 0.4 0.1 0.1 0 0.3 0 0.2 0 0.4 0z"/>
	<path id="Layer" class="s0" d="m78.4 42.8q-0.1 0-0.1 0-0.1 0-0.2 0-0.1 0-0.1 0-0.1 0-0.2 0.1 0 0 0 0-0.1 0-0.1 0.1 0 0-0.1 0 0 0.1 0 0.1 0 0.1 0 0.2 0 0 0 0.1 0 0.1 0 0.1 0 0.1 0 0.2v2.1q0 0.1 0 0.2 0 0.2 0 0.3 0 0.1 0 0.2 0 0.1 0 0.2 0 0.1 0 0.2 0 0.1-0.1 0.1 0 0.1 0 0.2-0.1 0.1-0.1 0.1-0.1 0.2-0.2 0.3-0.1 0.1-0.2 0.2-0.1 0.1-0.2 0.2-0.2 0.1-0.3 0.2-0.2 0-0.3 0-0.1 0.1-0.3 0.1-0.1 0-0.3 0.1-0.1 0-0.3 0-0.1 0-0.2 0-0.1 0-0.2-0.1-0.1 0-0.2 0-0.1 0-0.2 0-0.1-0.1-0.2-0.1-0.1 0-0.2-0.1-0.1 0-0.2-0.1-0.1 0-0.2-0.1-0.1 0-0.2-0.1 0-0.1-0.1-0.2-0.1-0.1-0.1-0.1-0.1-0.1-0.1-0.2-0.1-0.1-0.1-0.1 0-0.1 0-0.1-0.1-0.1-0.1-0.2 0 0 0-0.1 0 0 0-0.1 0 0 0-0.1-0.1 0-0.1-0.1 0 0 0-0.1 0-0.2 0-0.5v-2.4q0-0.1 0-0.2 0 0 0-0.1 0-0.1 0-0.1-0.1-0.1-0.1-0.2-0.1 0-0.2 0-0.1-0.1-0.2-0.1 0 0-0.1 0-0.1 0-0.2 0v-0.4h3v0.4q-0.1 0-0.2 0 0 0-0.1 0-0.1 0-0.2 0 0 0-0.1 0.1 0 0-0.1 0 0 0 0 0-0.1 0.1-0.1 0.1 0 0 0 0.1 0 0-0.1 0.1 0 0 0 0.1 0 0 0 0.1 0 0 0 0.1v2.4q0 0.1 0 0.2 0 0.1 0 0.2 0 0 0 0.1 0 0.1 0 0.2 0 0.1 0 0.1 0 0.1 0.1 0.1 0 0.1 0 0.2 0 0 0 0.1 0.1 0.1 0.1 0.2 0.1 0 0.1 0.1 0.1 0.1 0.2 0.1 0 0.1 0.1 0.2 0.1 0 0.2 0 0.1 0.1 0.2 0.1 0.1 0 0.2 0 0.1 0.1 0.2 0.1 0.1 0 0.2-0.1 0.1 0 0.2 0 0.2 0 0.3-0.1 0.1 0 0.2-0.1 0.1 0 0.1-0.1 0.1 0 0.2-0.1 0.1-0.1 0.1-0.2 0.1 0 0.1-0.1 0-0.1 0.1-0.2 0-0.1 0-0.1 0-0.1 0-0.2 0.1 0 0.1-0.1 0-0.1 0-0.2 0-0.1 0-0.2 0-0.1 0-0.2 0 0 0-0.1v-2.1q0-0.1 0-0.1 0-0.1 0-0.2 0 0 0-0.1 0 0 0-0.1 0 0-0.1 0 0-0.1 0-0.1 0 0 0 0-0.1-0.1-0.1-0.1 0 0-0.1-0.1 0 0 0 0 0 0-0.1 0 0-0.1-0.1-0.1 0 0-0.1 0 0 0-0.1 0-0.1 0-0.1 0-0.1 0-0.2 0v-0.4h2.2z"/>
	<path id="Layer" class="s0" d="m92.3 42.8q-0.1 0-0.2 0 0 0-0.1 0-0.1 0-0.2 0 0 0-0.1 0.1-0.1 0-0.1 0 0 0-0.1 0.1 0 0 0 0 0 0.1 0 0.1 0 0.1-0.1 0.2 0 0 0 0.1 0 0.1 0 0.1 0.1 0.1 0.1 0.2v4.6h-0.5l-3.9-4.5v3.2q0 0.1 0 0.1 0 0.1 0 0.2 0 0 0 0.1 0 0.1 0 0.1 0.1 0.1 0.1 0.1 0 0.1 0 0.1 0.1 0 0.1 0.1 0 0 0.1 0 0 0 0.1 0 0.1 0.1 0.2 0.1 0 0 0.1 0 0.1 0 0.2 0v0.4h-2.2v-0.4q0.1 0 0.2 0 0.1 0 0.1 0 0.1 0 0.2-0.1 0.1 0 0.1 0 0.1 0 0.1 0 0-0.1 0.1-0.1 0 0 0-0.1 0 0 0-0.1 0 0 0.1-0.1 0-0.1 0-0.1 0-0.1 0-0.2-0.1 0-0.1-0.1v-3q0-0.4 0-0.5 0-0.1 0-0.1 0-0.1 0-0.1 0-0.1 0-0.1 0 0-0.1-0.1 0 0 0 0 0-0.1-0.1-0.1 0 0 0 0-0.1-0.1-0.1-0.1 0 0-0.1 0-0.1-0.1-0.1-0.1-0.1 0-0.1 0-0.1 0-0.2 0v-0.4h1.8l3.3 4v-2.7q0-0.1 0-0.2 0 0 0-0.1 0-0.1 0-0.1 0-0.1 0-0.1 0-0.1 0-0.1 0-0.1-0.1-0.1 0 0 0-0.1-0.1 0-0.1 0-0.1 0-0.1-0.1-0.1 0-0.2 0-0.1 0-0.1 0-0.1 0-0.2 0v-0.4h2.2z"/>
	<path id="Layer" class="s0" d="m102.7 48.3h-3v-0.4q0.1 0 0.2 0 0 0 0.1 0 0.1-0.1 0.1-0.1 0.1 0 0.2 0 0 0 0 0 0.1-0.1 0.1-0.1 0 0 0.1 0 0-0.1 0-0.1 0-0.1 0-0.1 0.1-0.1 0.1-0.1 0-0.1 0-0.1 0-0.1 0-0.1v-3.7q0-0.1 0-0.2 0 0 0-0.1-0.1-0.1-0.1-0.1 0-0.1-0.1-0.2-0.1 0-0.1-0.1-0.1 0-0.2 0-0.1 0-0.2 0-0.1 0-0.2 0v-0.4h3v0.4q-0.1 0-0.1 0-0.1 0-0.2 0 0 0-0.1 0-0.1 0-0.2 0 0 0.1 0 0.1-0.1 0-0.1 0 0 0-0.1 0.1 0 0 0 0.1 0 0 0 0-0.1 0.1-0.1 0.2 0 0 0 0.1 0 0 0 0.1v3.7q0 0 0 0.1 0 0 0 0.1 0 0 0.1 0.1 0 0 0 0.1 0 0 0 0 0.1 0.1 0.1 0.1 0 0 0.1 0 0 0.1 0 0.1 0.1 0 0.2 0 0 0 0.1 0 0.1 0.1 0.2 0.1 0 0 0.1 0z"/>
	<path id="Layer" class="s0" d="m116.6 42.8q0 0-0.1 0 0 0 0 0-0.1 0-0.1 0-0.1 0-0.1 0-0.1 0-0.1 0.1 0 0-0.1 0 0 0 0 0-0.1 0.1-0.1 0.1 0 0-0.1 0.1 0 0 0 0 0 0.1-0.1 0.1 0 0.1 0 0.1-0.1 0.2-0.3 0.6l-1.9 4.5h-0.4l-2-4.7q0-0.1-0.1-0.2 0-0.1 0-0.1-0.1-0.1-0.1-0.2 0-0.1-0.1-0.1 0-0.1 0-0.1-0.1 0-0.1-0.1 0 0-0.1 0 0 0-0.1-0.1 0 0-0.1 0-0.1 0-0.1 0-0.1 0-0.2 0 0 0-0.1 0v-0.4h3v0.4q-0.1 0-0.1 0-0.1 0-0.2 0-0.1 0-0.1 0-0.1 0-0.2 0 0 0.1-0.1 0.1 0 0 0 0 0 0.1 0 0.1 0 0.1 0 0.1 0 0.1 0 0.1 0 0.1 0 0.1 0 0.1 0 0.1 0 0.1 0.1 0.1l1.3 3.2 1.3-3q0 0 0-0.1 0.1-0.1 0.1-0.1 0-0.1 0-0.2 0 0 0-0.1 0-0.3-0.2-0.4 0 0-0.1 0-0.1 0-0.2 0 0 0-0.1 0-0.1 0-0.2 0v-0.4h2.2z"/>
	<path id="Layer" class="s0" d="m129.4 46.3l-0.1 2h-5.2v-0.4q0.1 0 0.2 0 0.1 0 0.2 0 0-0.1 0.1-0.1 0.1 0 0.2-0.1 0 0 0.1-0.1 0-0.1 0-0.1 0-0.1 0-0.2 0 0 0-0.1v-3.7q0-0.1 0.1-0.1 0-0.1 0-0.1 0-0.1 0-0.1-0.1-0.1-0.1-0.1 0 0 0-0.1 0 0-0.1 0 0-0.1 0-0.1-0.1 0-0.1 0-0.1-0.1-0.1-0.1-0.1 0-0.2 0-0.1 0-0.1 0-0.1 0-0.2 0v-0.4h4.9l0.1 1.5h-0.4q-0.1-0.1-0.1-0.2 0-0.1 0-0.2-0.1-0.1-0.1-0.1-0.1-0.1-0.1-0.2-0.1-0.1-0.1-0.1-0.1 0-0.1-0.1-0.1 0-0.1 0-0.1-0.1-0.1-0.1-0.1 0-0.2 0-0.1 0-0.2 0-0.1 0-0.1 0-0.1 0-0.2 0h-1.1v2.1h0.6q0 0 0.1 0 0.1-0.1 0.1-0.1 0.1 0 0.1 0 0.1 0 0.1 0 0.1 0 0.1 0 0.1-0.1 0.1-0.1 0 0 0 0 0-0.1 0.1-0.1 0-0.1 0-0.1 0-0.1 0-0.1 0-0.1 0-0.2 0 0 0-0.1h0.5v2h-0.4q0-0.1 0-0.1 0-0.1 0-0.1 0-0.1-0.1-0.2 0 0 0-0.1 0 0 0 0 0-0.1-0.1-0.1 0 0 0 0-0.1-0.1-0.1-0.1-0.1 0-0.1 0-0.1 0-0.1 0-0.1 0-0.2 0 0 0-0.1 0h-0.6v1.4q0 0.3 0 0.5 0 0 0 0 0 0.1 0.1 0.1 0 0 0 0.1 0 0 0 0 0 0.1 0.1 0.1 0 0 0 0 0.1 0.1 0.1 0.1 0 0 0.1 0 0 0 0.1 0 0.1 0 0.1 0 0.1 0 0.1 0 0.1 0 0.2 0h0.4q0.1 0 0.2 0 0 0 0.1 0 0.1 0 0.2 0 0-0.1 0.1-0.1 0.1 0 0.2 0 0-0.1 0.1-0.1 0.1-0.1 0.1-0.1 0.1-0.1 0.1-0.2 0.1-0.1 0.2-0.2 0-0.1 0.1-0.2 0-0.2 0.1-0.3 0-0.1 0-0.3z"/>
	<path id="Layer" fill-rule="evenodd" class="s2" d="m156.4 48.3h-1.6q0-0.1 0-0.1 0 0-0.1-0.1 0 0 0 0 0-0.1-0.1-0.1-0.1-0.2-0.3-0.4l-0.2-0.4-0.4-0.7q0-0.1-0.1-0.2 0 0-0.1-0.1 0-0.1-0.1-0.2-0.1 0-0.1-0.1 0-0.1-0.1-0.1 0 0 0 0-0.1-0.1-0.1-0.1-0.1 0-0.1 0-0.1 0-0.2 0 0 0-0.1 0-0.1 0-0.2 0 0 0-0.1 0h-0.2v1.5q0 0.1 0 0.1 0 0.1 0 0.1 0 0.1 0 0.1 0 0.1 0 0.1 0 0 0.1 0.1 0 0 0 0 0 0.1 0.1 0.1 0 0 0.1 0 0 0 0.1 0.1 0.1 0 0.1 0 0.1 0 0.2 0 0 0 0.1 0v0.4h-3v-0.4q0.1 0 0.2 0 0.1 0 0.2 0 0.1 0 0.1-0.1 0.1 0 0.2-0.1 0.1 0 0.1-0.1 0 0 0-0.1 0.1-0.1 0.1-0.2 0 0 0-0.1v-3.7q0-0.1 0-0.2 0 0-0.1-0.1 0-0.1 0-0.1 0-0.1-0.1-0.2-0.1 0-0.2-0.1 0 0-0.1 0-0.1 0-0.2 0-0.1 0-0.2 0v-0.4h2.6 0.8q0 0 0.1 0 0.1 0 0.2 0 0 0.1 0.1 0.1 0.1 0 0.2 0 0.1 0 0.1 0.1 0.1 0 0.2 0 0.1 0.1 0.1 0.1 0.1 0 0.2 0.1 0.1 0 0.1 0.1 0.1 0 0.2 0.1 0 0.1 0.1 0.1 0 0.1 0.1 0.2 0 0.1 0.1 0.1 0 0.1 0 0.2 0 0.1 0 0.2 0.1 0.1 0.1 0.2 0 0.1-0.1 0.1 0 0.1 0 0.2 0 0.1 0 0.1 0 0.1-0.1 0.2 0 0 0 0.1-0.1 0.1-0.1 0.1-0.1 0.1-0.2 0.2 0 0-0.1 0.1-0.1 0-0.2 0.1 0 0-0.1 0.1-0.1 0-0.2 0.1-0.1 0-0.2 0 0 0.1 0.1 0.1 0.1 0.1 0.2 0.1 0 0.1 0.1 0.1 0.1 0.1 0.1 0.2 0.2 0.2 0.7 1 0.1 0.1 0.1 0.1 0.1 0.1 0.1 0.2 0.1 0.1 0.1 0.1 0.1 0.1 0.2 0.2 0 0 0 0.1 0.1 0 0.1 0.1 0.1 0 0.1 0 0 0.1 0.1 0.1 0 0 0.1 0 0 0 0.1 0.1 0 0 0.1 0 0 0 0.1 0zm-2.4-4.3q0-0.1-0.1-0.2 0-0.2 0-0.3-0.1-0.1-0.2-0.2-0.1-0.1-0.2-0.2-0.1-0.1-0.2-0.1-0.2-0.1-0.3-0.1-0.2 0-0.3 0-0.2 0-0.3 0h-0.3v2.3h0.3q0.1 0 0.3 0 0.1 0 0.3 0 0.1 0 0.2-0.1 0.2 0 0.3-0.1c0.3-0.2 0.5-0.5 0.5-1z"/>
	<path id="Layer" class="s2" d="m142.3 46.6q0 0.1-0.1 0.1 0 0.1 0 0.2 0 0 0 0.1 0 0.1-0.1 0.2 0 0 0 0.1-0.1 0.1-0.1 0.2-0.1 0-0.1 0.1-0.1 0.1-0.1 0.1-0.1 0.1-0.1 0.2-0.1 0-0.2 0.1-0.1 0.1-0.1 0.1-0.1 0.1-0.2 0.1-0.1 0-0.2 0.1-0.1 0-0.2 0-0.1 0.1-0.2 0.1-0.1 0-0.2 0-0.2 0-0.3 0-0.1-0.1-0.2-0.1-0.1 0-0.2 0-0.2-0.1-0.3-0.1-0.1-0.1-0.2-0.1-0.1-0.1-0.2-0.2-0.1-0.1-0.2-0.2-0.1 0-0.2-0.1 0 0 0 0.1 0 0.1-0.1 0.2 0 0 0 0.1 0 0.1 0 0.2h-0.4v-2h0.4q0 0.1 0 0.2 0.1 0.1 0.1 0.2 0 0.1 0.1 0.2 0 0.1 0.1 0.2 0 0.1 0.1 0.2 0 0.1 0.1 0.1 0.1 0.1 0.1 0.2 0.1 0.1 0.2 0.1 0.1 0.1 0.2 0.2 0.1 0 0.2 0.1 0.1 0 0.2 0 0.1 0 0.3 0 0.1 0 0.2 0 0 0 0.1 0 0.1-0.1 0.2-0.1 0.1-0.1 0.2-0.1 0.1-0.1 0.1-0.2 0.1-0.2 0.1-0.3 0.1-0.1 0-0.3 0-0.1 0-0.2-0.1-0.1-0.1-0.1 0 0 0-0.1-0.1 0-0.1 0 0-0.1-0.1-0.1 0 0-0.1-0.1 0 0-0.1 0 0-0.1-0.1-0.1-0.1 0-0.1-0.1l-0.6-0.3q-0.1 0-0.3-0.1-0.1 0-0.2-0.1-0.1-0.1-0.2-0.1-0.1-0.1-0.2-0.2-0.1 0-0.2-0.1 0 0-0.1-0.1-0.1-0.1-0.1-0.1-0.1-0.1-0.1-0.2-0.1 0-0.1-0.1 0 0-0.1-0.1 0 0 0-0.1 0-0.1-0.1-0.1 0-0.1 0-0.1 0-0.1 0-0.1 0-0.1 0-0.2 0 0 0-0.1 0-0.1 0-0.2 0-0.1 0-0.2 0-0.1 0.1-0.2 0-0.1 0.1-0.2 0 0 0.1-0.1 0.1-0.1 0.1-0.2 0.1-0.1 0.2-0.2 0.1 0 0.2-0.1 0.1 0 0.2-0.1 0.1 0 0.3-0.1 0.1 0 0.2 0 0.1 0 0.2 0 0.2 0 0.3 0 0.1 0 0.2 0 0.1 0 0.2 0.1 0 0 0.1 0.1 0.1 0 0.2 0.1 0.1 0 0.2 0.1 0.1 0 0.1 0.1 0.1 0.1 0.2 0.2 0-0.1 0-0.2 0.1 0 0.1-0.1 0-0.1 0-0.1 0-0.1 0-0.1l0.4-0.1v1.7h-0.4q-0.4-1.3-1.5-1.4-0.1 0-0.1 0.1-0.1 0-0.2 0-0.1 0-0.2 0.1 0 0-0.1 0.1-0.1 0-0.1 0.1-0.1 0-0.1 0.1 0 0.1 0 0.1-0.1 0.1-0.1 0.2 0 0.1 0.1 0.1 0 0.1 0 0.1 0 0.1 0 0.1 0.1 0.1 0.1 0.1 0 0.1 0.1 0.1 0 0.1 0.1 0.1 0 0.1 0.1 0.1 0 0 0.1 0.1 0.2 0.1 0.8 0.4 0.1 0 0.2 0.1 0.2 0 0.3 0.1 0.1 0.1 0.2 0.1 0.1 0.1 0.3 0.2 0.1 0 0.1 0.1 0.1 0.1 0.2 0.1 0.1 0.1 0.2 0.2 0 0.1 0.1 0.2 0.1 0 0.1 0.1 0.1 0.1 0.1 0.2 0 0.2 0 0.3 0.1 0.1 0.1 0.2z"/>
	<path id="Layer" class="s0" d="m165.9 48.3h-3v-0.4q0.1 0 0.2 0 0 0 0.1 0 0.1-0.1 0.2-0.1 0 0 0.1 0 0 0 0.1 0 0-0.1 0-0.1 0.1 0 0.1 0 0-0.1 0-0.1 0.1-0.1 0.1-0.1 0-0.1 0-0.1 0-0.1 0-0.1 0-0.1 0-0.1v-3.7q0-0.1 0-0.2 0 0 0-0.1 0-0.1-0.1-0.1 0-0.1-0.1-0.2 0 0-0.1-0.1-0.1 0-0.2 0-0.1 0-0.2 0-0.1 0-0.2 0v-0.4h3v0.4q-0.1 0-0.1 0-0.1 0-0.2 0 0 0-0.1 0-0.1 0-0.1 0-0.1 0.1-0.1 0.1-0.1 0-0.1 0 0 0 0 0.1-0.1 0-0.1 0.1 0 0 0 0.1 0 0 0 0.1 0 0 0 0.1-0.1 0-0.1 0.1v3.7q0 0 0.1 0.1 0 0 0 0.1 0 0 0 0.1 0 0 0 0.1 0 0 0.1 0 0 0.1 0 0.1 0 0 0.1 0 0 0.1 0 0.1 0.1 0 0.2 0 0.1 0 0.1 0 0.1 0.1 0.2 0.1 0 0 0.1 0z"/>
	<path id="Layer" class="s0" d="m179.3 44.1h-0.4q0-0.1-0.1-0.3 0-0.1 0-0.2 0-0.1-0.1-0.2 0-0.1-0.1-0.2 0 0 0-0.1-0.1 0-0.1 0-0.1-0.1-0.2-0.1 0 0-0.1-0.1 0 0-0.1 0-0.1 0-0.1 0-0.1 0-0.1 0-0.1 0-0.2 0h-0.7v4.3q0 0 0 0.1 0 0 0 0.1 0 0 0 0.1 0 0 0.1 0.1 0 0 0 0.1 0 0 0 0 0.1 0 0.1 0.1 0 0 0.1 0 0.1 0 0.1 0 0.1 0.1 0.2 0.1 0 0 0.1 0 0.1 0 0.2 0v0.4h-3v-0.4q0 0 0.1 0 0.1 0 0.2 0 0.1-0.1 0.2-0.1 0.1 0 0.1-0.1 0.1 0 0.1-0.1 0.1-0.1 0.1-0.1 0-0.1 0-0.2 0 0 0-0.1v-4.3h-0.6q-0.1 0-0.2 0 0 0-0.1 0-0.1 0-0.2 0 0 0-0.1 0-0.1 0-0.1 0.1-0.1 0-0.2 0 0 0.1-0.1 0.1 0 0.1-0.1 0.1 0 0.1 0 0.2-0.1 0.1-0.1 0.2 0 0.1-0.1 0.2 0 0.1 0 0.3h-0.4v-1.7h5.8z"/>
	<path id="Layer" class="s0" d="m192.8 42.8q0 0-0.1 0 0 0-0.1 0 0 0-0.1 0 0 0.1-0.1 0.1 0 0-0.1 0.1 0 0 0 0-0.1 0.1-0.1 0.1 0 0-0.1 0.1-0.1 0.2-0.5 0.7l-1.2 1.9v1.4q0 0 0 0.1 0 0 0 0.1 0 0 0 0.1 0 0 0.1 0.1 0 0 0 0 0 0.1 0.1 0.1 0 0 0 0 0.1 0.1 0.1 0.1 0.1 0 0.1 0 0.1 0 0.2 0.1 0 0 0.1 0 0.1 0 0.2 0v0.4h-3v-0.4q0 0 0.1 0 0.1 0 0.1 0 0.1-0.1 0.2-0.1 0.1 0 0.1 0 0.1 0 0.1 0 0-0.1 0.1-0.1 0 0 0 0 0.1-0.1 0.1-0.1 0-0.1 0-0.1 0-0.1 0-0.1 0-0.1 0-0.1 0-0.1 0-0.1v-1.3l-1.5-2.5v-0.1q0 0 0-0.1-0.1 0-0.1-0.1 0 0-0.1-0.1 0 0-0.1-0.1 0 0-0.1 0 0 0-0.1-0.1-0.1 0-0.1 0-0.1 0-0.1 0v-0.4h2.7v0.4h-0.3q0 0-0.1 0 0 0 0 0 0 0.1-0.1 0.1 0 0 0 0 0 0 0 0 0 0-0.1 0 0 0 0 0.1 0 0 0 0 0 0 0 0.1 0 0 0 0 0 0 0 0.1 0 0 0 0 0.1 0.1 0.1 0.1 0 0.1 0.1 0.1 0 0.1 0 0.1 0.1 0.1 0.1 0.1l0.9 1.6 0.9-1.4q0-0.1 0.1-0.1 0-0.1 0.1-0.2 0-0.1 0-0.2 0.1-0.1 0.1-0.1 0-0.3-0.2-0.4-0.1 0-0.1 0-0.1 0-0.2 0 0-0.1-0.1-0.1 0 0-0.1 0v-0.4h2.1z"/>
	<path id="Layer" fill-rule="evenodd" class="s0" d="m173 34.3v0.2 0.1q-0.1 0.2-0.2 0.4 0 0.1-0.1 0.3-0.1 0.2-0.3 0.3-0.1 0.1-0.3 0.2-0.1 0.2-0.3 0.2-0.2 0.1-0.3 0.2-0.2 0-0.4 0.1-0.2 0-0.4 0-0.4 0-0.8-0.1-0.4-0.1-0.8-0.3-0.3-0.2-0.7-0.5-0.3-0.3-0.5-0.6-0.3 0.3-0.6 0.6-0.4 0.3-0.8 0.5-0.3 0.2-0.8 0.3-0.4 0.1-0.8 0.1-0.4 0-0.9-0.1-0.4-0.1-0.7-0.3-0.4-0.2-0.7-0.5-0.3-0.3-0.6-0.6-0.1-0.2-0.2-0.4-0.1-0.3-0.2-0.5 0-0.2 0-0.4-0.1-0.2-0.1-0.5 0-0.2 0.1-0.5 0-0.2 0.1-0.5 0.1-0.2 0.2-0.4 0.1-0.3 0.2-0.4 0.3-0.3 0.5-0.5 0.2-0.2 0.5-0.4 0.2-0.3 0.5-0.4 0.3-0.2 0.5-0.4-0.1-0.3-0.3-0.5-0.1-0.3-0.2-0.6-0.2-0.3-0.2-0.6-0.1-0.3-0.1-0.6 0-0.3 0-0.5 0.1-0.2 0.2-0.4 0.1-0.3 0.2-0.5 0.1-0.2 0.3-0.3 0.2-0.2 0.4-0.3 0.2-0.2 0.5-0.3 0.2-0.1 0.4-0.1 0.3-0.1 0.5-0.1 0.3 0 0.5 0.1 0.2 0 0.5 0.1 0.2 0 0.4 0.1 0.2 0.1 0.4 0.3 0.2 0.1 0.3 0.3 0.2 0.1 0.3 0.3 0.1 0.2 0.2 0.5 0 0.2 0 0.4 0 1.3-2.2 2.5l2.3 3.2q0.1-0.1 0.2-0.2 0-0.1 0.1-0.3 0-0.1 0.1-0.2 0.1-0.1 0.1-0.2 0.1-0.2 0.1-0.3 0-0.1 0.1-0.2 0-0.2 0-0.3 0.1-0.1 0.1-0.2c0-0.4-0.1-0.7-1-0.9h-0.3v-0.8h4v0.8h-0.2q-0.1 0.1-0.3 0.1-0.1 0.1-0.2 0.1-0.1 0.1-0.3 0.2-0.1 0.1-0.2 0.2-0.1 0.2-0.3 0.4-0.1 0.1-0.2 0.4-0.2 0.2-0.3 0.4-0.1 0.2-0.1 0.4-0.1 0.2-0.2 0.4-0.1 0.2-0.2 0.3 0 0.2-0.1 0.4-0.1 0.2-0.3 0.3 0.2 0.2 0.3 0.4 0.1 0.2 0.3 0.3 0.1 0.2 0.3 0.4 0.2 0.1 0.3 0.3 0.1 0 0.2 0.1 0.2 0.1 0.3 0.1 0.1 0 0.2 0 0.1 0.1 0.2 0.1 0.2 0 0.3-0.1 0.2 0 0.3-0.1 0.2-0.1 0.3-0.2 0.1-0.1 0.1-0.3h0.1 0.6zm-6.1-7.5q0-0.1 0-0.2 0-0.2-0.1-0.3 0-0.1-0.1-0.2 0-0.1-0.1-0.2-0.1-0.1-0.3-0.2-0.2-0.1-0.4-0.1-0.3 0-0.5 0.1-0.2 0.1-0.3 0.2-0.1 0.1-0.1 0.2-0.1 0.1-0.1 0.2-0.1 0.1-0.1 0.2 0 0.1 0 0.2 0.1 0.2 0.1 0.5 0.1 0.2 0.2 0.4 0.1 0.3 0.2 0.5 0.2 0.2 0.3 0.4c0.9-0.5 1.3-1.1 1.3-1.7zm-2.5 3.6q-0.2 0.1-0.3 0.3-0.1 0.1-0.2 0.2-0.2 0.1-0.3 0.3-0.1 0.1-0.1 0.3-0.1 0.1-0.2 0.3 0 0.1-0.1 0.3 0 0.1 0 0.3 0 0.2 0.1 0.5 0 0.2 0.1 0.4 0.1 0.2 0.2 0.4 0.2 0.2 0.3 0.4 0.2 0.2 0.4 0.3 0.2 0.2 0.4 0.3 0.2 0.1 0.4 0.1 0.2 0.1 0.5 0.1 0.2 0 0.5-0.1 0.2 0 0.4-0.2 0.3-0.1 0.5-0.2 0.2-0.2 0.3-0.4-1.5-2.3-2.6-3.8-0.2 0.1-0.3 0.2z"/>
	<path id="Layer" fill-rule="evenodd" class="s0" d="m197.4 45.5c0.6 0 1.1 0.4 1.3 0.9 0.3 0.6 0.1 1.2-0.3 1.6-0.4 0.4-1 0.5-1.5 0.2-0.6-0.2-0.9-0.7-0.9-1.3q0-0.3 0.1-0.5 0.1-0.3 0.3-0.5 0.2-0.2 0.5-0.3 0.2-0.1 0.5-0.1zm0 0.2c-0.5 0-0.9 0.3-1.1 0.7-0.2 0.5-0.2 1 0.2 1.4 0.3 0.3 0.8 0.4 1.3 0.3 0.5-0.2 0.7-0.7 0.7-1.2q0.1-0.2 0-0.4-0.1-0.2-0.3-0.4-0.1-0.2-0.3-0.3-0.3-0.1-0.5-0.1zm-0.2 2h-0.3v-1.5q0.1 0 0.1 0 0.1 0 0.1 0 0.1 0 0.1 0 0.1 0 0.1 0 0.1 0 0.2 0 0 0 0.1 0 0.1 0 0.1 0 0.1 0.1 0.1 0.1 0.1 0.1 0.2 0.2 0 0.1 0 0.2-0.1 0.1-0.1 0.2-0.1 0.1-0.2 0.1c0.1 0 0.2 0.2 0.2 0.4q0 0 0 0.1 0.1 0 0.1 0.1 0 0 0 0.1 0 0 0 0.1h-0.2q-0.1-0.1-0.1-0.1 0-0.1 0-0.1 0-0.1 0-0.1 0-0.1 0-0.1 0-0.1-0.1-0.1 0-0.1 0-0.1-0.1-0.1-0.2-0.1 0 0-0.1 0h-0.2zm0-0.9h0.2c0.2 0 0.4 0 0.4-0.2 0-0.2-0.1-0.3-0.4-0.3h-0.2z"/>
</svg>