<svg xmlns="http://www.w3.org/2000/svg" id="Layer_1" data-name="Layer 1" viewBox="24.63 29.98 202.8 48.05"><defs><style>.cls-1{fill:#500000;}.cls-2{fill:#fff;}.cls-3{fill:#b1b3b6;}</style></defs><title>TAMU Logo</title><rect class="cls-1" x="24.63" y="29.98" width="197.91" height="48.05"/><rect class="cls-2" x="77" y="40.46" width="0.69" height="27.07"/><polygon class="cls-2" points="65.33 49.6 62.35 49.6 62.18 49.6 62.11 49.75 59.95 54.24 57.8 49.75 57.72 49.6 57.55 49.6 54.68 49.6 54.41 49.6 54.41 49.87 54.41 51.4 54.41 51.67 54.68 51.67 55.17 51.67 55.17 58.09 54.64 58.09 54.37 58.09 54.37 58.37 54.37 59.89 54.37 60.17 54.64 60.17 57.86 60.17 58.13 60.17 58.13 59.89 58.13 58.37 58.13 58.09 57.86 58.09 57.3 58.09 57.3 53.54 59.71 58.5 59.95 59.01 60.2 58.5 62.64 53.52 62.64 58.09 62.1 58.09 61.83 58.09 61.83 58.37 61.83 59.89 61.83 60.17 62.1 60.17 65.33 60.17 65.6 60.17 65.6 59.89 65.6 58.37 65.6 58.09 65.33 58.09 64.77 58.09 64.77 51.67 65.33 51.67 65.6 51.67 65.6 51.4 65.6 49.87 65.6 49.6 65.33 49.6"/><path class="cls-2" d="M46.61,58.08h-.86L43,51.64h.54V49.56H39v2.07h.61l-2.79,6.45H35.69v2.08h4.07V58.08h-.6L39.63,57H43l.46,1.07h-.62v2.08h4.06V58.08Zm-4.53-3.15H40.52l.78-1.8Z"/><polygon class="cls-2" points="61.91 41.54 39.3 41.54 38.99 41.54 38.99 41.85 38.99 47.89 38.99 48.2 39.3 48.2 43.21 48.2 43.52 48.2 43.52 47.89 43.52 45.65 48.34 45.65 48.34 61.57 46.1 61.57 45.79 61.57 45.79 61.88 45.79 65.78 45.79 66.1 46.1 66.1 55.12 66.1 55.43 66.1 55.43 65.78 55.43 61.88 55.43 61.57 55.12 61.57 52.87 61.57 52.87 45.65 57.67 45.65 57.67 47.86 57.67 48.18 57.98 48.18 61.91 48.18 62.23 48.18 62.23 47.86 62.23 41.85 62.23 41.54 61.91 41.54"/><polygon class="cls-3" points="53.55 63.43 54.5 62.44 54.5 65.14 53.55 64.22 53.55 63.43"/><polygon class="cls-3" points="51.95 62.51 51 63.45 51 43.77 51.95 44.73 51.95 62.51"/><polygon class="cls-3" points="40.91 43.43 39.92 42.47 60.82 42.47 59.58 43.43 40.91 43.43"/><polygon class="cls-3" points="61.32 47.3 60.37 46.39 60.37 43.96 61.32 42.98 61.32 47.3"/><path class="cls-2" d="M102.71,45.6h-1a4.23,4.23,0,0,0-.58-2,1.87,1.87,0,0,0-1-.78A4.39,4.39,0,0,0,99,42.72H97.16V53.18a2.9,2.9,0,0,0,.13,1,1,1,0,0,0,.59.53,3.73,3.73,0,0,0,1.36.19v1H92.07v-1a2.58,2.58,0,0,0,1.7-.38,1.82,1.82,0,0,0,.38-1.31V42.72H92.63a6.46,6.46,0,0,0-1.49.14,1.8,1.8,0,0,0-1,.78,3.78,3.78,0,0,0-.51,2h-1V41.55h14.12Z"/><path class="cls-2" d="M116.65,51.14l-.12,4.7H103.81v-1a2.56,2.56,0,0,0,1.7-.38,1.82,1.82,0,0,0,.38-1.31v-9a3,3,0,0,0-.12-1,1,1,0,0,0-.57-.54,3.78,3.78,0,0,0-1.39-.19v-1h11.85l.19,3.71h-1a4.9,4.9,0,0,0-.75-1.77,1.74,1.74,0,0,0-1-.66,7.9,7.9,0,0,0-1.6-.12H108.9v5.05h1.45a3.54,3.54,0,0,0,1.12-.13.83.83,0,0,0,.52-.5,4.06,4.06,0,0,0,.2-1.16h1v4.75h-1a3.41,3.41,0,0,0-.21-1.16.89.89,0,0,0-.53-.5,3.57,3.57,0,0,0-1.11-.13H108.9V52.3c0,.56,0,1,0,1.23a1.35,1.35,0,0,0,.23.65,1,1,0,0,0,.6.37,4.57,4.57,0,0,0,1.18.12h1.15a5.11,5.11,0,0,0,1.39-.18,2.69,2.69,0,0,0,1.29-.95,5,5,0,0,0,.89-2.4Z"/><path class="cls-2" d="M146.51,54.64a1.6,1.6,0,0,1-.61-.64c-.15-.28-.38-.81-.69-1.59l-4.36-11.12h-1l-4.12,10.79a11.79,11.79,0,0,1-.8,1.75,2.28,2.28,0,0,1-.79.84,1.73,1.73,0,0,1-.45.16,3,3,0,0,1-.74-.18,3.1,3.1,0,0,1-1-.75,18.91,18.91,0,0,1-1.28-1.56l-3.48-4.55,2.55-2.93c.56-.64,1-1.1,1.27-1.38a3.52,3.52,0,0,1,1-.68,3.31,3.31,0,0,1,1.39-.26v-1H127.5v1H128a2.19,2.19,0,0,1,1,.15.53.53,0,0,1,.26.5.83.83,0,0,1-.09.41c-.06.11-.2.3-.4.56l-2.27,2.65-2-2.57a3.3,3.3,0,0,1-.64-1.14.44.44,0,0,1,.3-.48,3.44,3.44,0,0,1,.9-.09h.55v-1h-7.8v1a4.17,4.17,0,0,1,1.31.16,2,2,0,0,1,.81.52c.23.24.61.7,1.13,1.38l3.44,4.54-2.54,3a18.58,18.58,0,0,1-1.74,1.83,3.71,3.71,0,0,1-1.2.75,4.08,4.08,0,0,1-1.22.2v1h6.28v-1a8.19,8.19,0,0,1-1,0,1.24,1.24,0,0,1-.63-.24.68.68,0,0,1-.26-.58,2.52,2.52,0,0,1,.78-1.36l2.22-2.59,2.31,3a2.48,2.48,0,0,1,.56,1,.6.6,0,0,1-.44.64,3.25,3.25,0,0,1-1,.14H126v1h12.07v-1a3.49,3.49,0,0,1-1.14-.17.75.75,0,0,1-.49-.8,3.71,3.71,0,0,1,.3-1.13l.35-.93h4.63l.67,1.69a1.77,1.77,0,0,1,.13.64.54.54,0,0,1-.39.57,4.72,4.72,0,0,1-1.24.12v1h6.73v-1A2.21,2.21,0,0,1,146.51,54.64Zm-9-3.84,1.88-5,2,5Z"/><path class="cls-2" d="M158.4,51.58a3.79,3.79,0,0,1-.28,1.37,4.79,4.79,0,0,1-.84,1.39,4.26,4.26,0,0,1-1.42,1.08,4.48,4.48,0,0,1-2,.42,5.45,5.45,0,0,1-2.21-.48,4.87,4.87,0,0,1-1.86-1.44,5.51,5.51,0,0,0-.42,1.41h-.95V50.55h.95a9.15,9.15,0,0,0,.71,1.94A4.55,4.55,0,0,0,151.38,54a3.17,3.17,0,0,0,2,.66,2.4,2.4,0,0,0,1.69-.58,2,2,0,0,0,.44-2.32,2.13,2.13,0,0,0-.57-.66,6.16,6.16,0,0,0-1-.63c-.43-.22-.92-.46-1.47-.71a12.29,12.29,0,0,1-2.08-1.2,5.88,5.88,0,0,1-1.23-1.18,3.72,3.72,0,0,1-.58-1.09,3.42,3.42,0,0,1-.16-1,3.77,3.77,0,0,1,.51-1.85,4,4,0,0,1,1.48-1.5,4.32,4.32,0,0,1,2.25-.58,4.12,4.12,0,0,1,1.87.44A4.77,4.77,0,0,1,156.08,43a6.3,6.3,0,0,0,.34-1.22h1v3.9h-1q-1-3.18-3.59-3.18a2.19,2.19,0,0,0-1.49.49,1.58,1.58,0,0,0-.56,1.26,1.67,1.67,0,0,0,.35,1.05,3,3,0,0,0,.92.76c.38.21,1,.52,1.85.92a27.1,27.1,0,0,1,2.42,1.27,5.28,5.28,0,0,1,1.47,1.36A3.24,3.24,0,0,1,158.4,51.58Z"/><path class="cls-2" d="M180.21,55.84h-6.73v-1a4.75,4.75,0,0,0,1.24-.12.54.54,0,0,0,.39-.57,1.78,1.78,0,0,0-.13-.64l-.68-1.69h-4.63l-.35.93A3.67,3.67,0,0,0,169,53.9a.75.75,0,0,0,.49.8,3.46,3.46,0,0,0,1.14.17v1h-4.92v-1a2.1,2.1,0,0,0,1-.22,2.28,2.28,0,0,0,.79-.84,11.82,11.82,0,0,0,.8-1.75l4.12-10.79h1l4.35,11.12c.32.78.55,1.32.69,1.59a1.59,1.59,0,0,0,.61.64,2.2,2.2,0,0,0,1.1.23Zm-6.28-5-2-5-1.87,5Z"/><path class="cls-2" d="M211.36,55.84H204.2v-1a3.66,3.66,0,0,0,1.36-.18,1,1,0,0,0,.56-.54,2.78,2.78,0,0,0,.13-1v-9l-5.39,11.61h-.64l-5.46-11.61v8.51a8.12,8.12,0,0,0,0,1,1.24,1.24,0,0,0,.24.61,1.16,1.16,0,0,0,.62.37,4.57,4.57,0,0,0,1.17.12v1h-5.28v-1a4.23,4.23,0,0,0,1.17-.13,1.13,1.13,0,0,0,.61-.38,1.22,1.22,0,0,0,.23-.61,8.9,8.9,0,0,0,0-1V44.63a6.48,6.48,0,0,0-.1-1.3.89.89,0,0,0-.52-.61,3.6,3.6,0,0,0-1.44-.21v-1h5.21l4.74,10.08,4.75-10.08h5.11v1a2.57,2.57,0,0,0-1.7.38,1.82,1.82,0,0,0-.38,1.3v9a2.88,2.88,0,0,0,.13.94,1,1,0,0,0,.58.55,3.7,3.7,0,0,0,1.37.19Z"/><path class="cls-2" d="M96.93,60.78a1.28,1.28,0,0,0-.57.09.39.39,0,0,0-.21.26,2.57,2.57,0,0,0,0,.52v2.17a7.7,7.7,0,0,1,0,.9,1.66,1.66,0,0,1-.22.61,1.74,1.74,0,0,1-.92.82,3.19,3.19,0,0,1-1.14.22,3.38,3.38,0,0,1-.83-.11,2.54,2.54,0,0,1-.79-.35,1.57,1.57,0,0,1-.56-.64,2.26,2.26,0,0,1-.16-.44,2.09,2.09,0,0,1-.07-.42c0-.12,0-.29,0-.5V61.48a.77.77,0,0,0-.15-.54,1,1,0,0,0-.7-.16v-.4h3v.4a1.59,1.59,0,0,0-.57.08.41.41,0,0,0-.24.22,1.11,1.11,0,0,0-.06.4v2.45a5.06,5.06,0,0,0,0,.66,2.23,2.23,0,0,0,.12.5,1.18,1.18,0,0,0,.5.56,1.54,1.54,0,0,0,.78.21,1.71,1.71,0,0,0,.85-.22,1.25,1.25,0,0,0,.55-.58,2.17,2.17,0,0,0,.16-.58,6.6,6.6,0,0,0,0-.71V61.66a3.73,3.73,0,0,0,0-.42.55.55,0,0,0-.1-.25.45.45,0,0,0-.26-.16,2.06,2.06,0,0,0-.5,0v-.4h2.17Z"/><path class="cls-2" d="M110.82,60.78a1.52,1.52,0,0,0-.6.09.39.39,0,0,0-.23.25,2.41,2.41,0,0,0,0,.54v4.67h-.4l-3.86-4.58V65a2.28,2.28,0,0,0,0,.54.39.39,0,0,0,.23.26,1.5,1.5,0,0,0,.61.09v.4h-2.19v-.4a1.34,1.34,0,0,0,.57-.09.39.39,0,0,0,.22-.26,2.51,2.51,0,0,0,0-.54V62c0-.24,0-.43,0-.55a.89.89,0,0,0-.09-.32.53.53,0,0,0-.24-.22,1.3,1.3,0,0,0-.46-.12v-.4h1.72l3.36,4V61.66a2.24,2.24,0,0,0,0-.5.43.43,0,0,0-.23-.27,1.27,1.27,0,0,0-.57-.1v-.4h2.2Z"/><path class="cls-2" d="M121.24,66.28h-3v-.4a1.65,1.65,0,0,0,.56-.08.4.4,0,0,0,.25-.21,1.15,1.15,0,0,0,.06-.41v-3.7a.74.74,0,0,0-.16-.54,1.08,1.08,0,0,0-.71-.16v-.4h3v.4a1.68,1.68,0,0,0-.57.07.41.41,0,0,0-.25.21,1.13,1.13,0,0,0-.06.41v3.7a1.09,1.09,0,0,0,.06.4.4.4,0,0,0,.24.22,1.5,1.5,0,0,0,.58.08Z"/><path class="cls-2" d="M135.17,60.78a1.24,1.24,0,0,0-.36.06.59.59,0,0,0-.25.16,1.57,1.57,0,0,0-.2.3c-.07.13-.16.33-.28.6l-1.92,4.48h-.4l-2-4.7a5.22,5.22,0,0,0-.29-.61.56.56,0,0,0-.28-.23,1.49,1.49,0,0,0-.52-.07v-.4h3v.4a2.86,2.86,0,0,0-.59.07.24.24,0,0,0-.16.26,1,1,0,0,0,.11.42l1.35,3.15,1.25-2.94a1.7,1.7,0,0,0,.16-.53c0-.19-.07-.3-.2-.35a2,2,0,0,0-.59-.08v-.4h2.18Z"/><path class="cls-2" d="M147.92,64.34l-.05,1.94h-5.25v-.4a1.08,1.08,0,0,0,.7-.16.78.78,0,0,0,.15-.54v-3.7a1.28,1.28,0,0,0,0-.39.39.39,0,0,0-.24-.22,1.55,1.55,0,0,0-.57-.08v-.4h4.89l.07,1.53h-.4a2,2,0,0,0-.31-.73.73.73,0,0,0-.4-.27,3,3,0,0,0-.66-.05h-1.11v2.08h.6a1.48,1.48,0,0,0,.46-.05.34.34,0,0,0,.21-.21,1.7,1.7,0,0,0,.08-.48h.42v2h-.4a1.39,1.39,0,0,0-.09-.48.35.35,0,0,0-.22-.2,1.41,1.41,0,0,0-.46-.05h-.61v1.38c0,.23,0,.4,0,.51a.57.57,0,0,0,.1.27.45.45,0,0,0,.25.16,2,2,0,0,0,.49,0H146a2,2,0,0,0,.57-.08,1.09,1.09,0,0,0,.53-.39,2.1,2.1,0,0,0,.37-1Z"/><path class="cls-2" d="M161.95,66.28h-1.57a2.26,2.26,0,0,1-.22-.28c-.09-.12-.18-.26-.28-.43l-.25-.41-.4-.66a5.31,5.31,0,0,0-.41-.61.61.61,0,0,0-.31-.21,2.69,2.69,0,0,0-.6,0h-.22v1.54a1.1,1.1,0,0,0,.05.39.38.38,0,0,0,.24.22,1.51,1.51,0,0,0,.56.08v.4h-3v-.4a1,1,0,0,0,.7-.16.75.75,0,0,0,.15-.54V61.47a.78.78,0,0,0-.15-.54,1,1,0,0,0-.7-.16v-.41l1.36,0h1.18l.82.05a4,4,0,0,1,.6.1,2,2,0,0,1,.62.27,1.56,1.56,0,0,1,.48.5,1.4,1.4,0,0,1,.18.72,1.33,1.33,0,0,1-.12.57,1.29,1.29,0,0,1-.41.5,2.19,2.19,0,0,1-.75.34,2,2,0,0,1,.54.46c.14.18.38.52.7,1a6.1,6.1,0,0,0,.45.63,1.16,1.16,0,0,0,.33.29,1.19,1.19,0,0,0,.38.1ZM159.51,62a1,1,0,0,0-.43-.93,2.36,2.36,0,0,0-1.12-.23h-.28v2.37H158a2.57,2.57,0,0,0,1.1-.21C159.36,62.81,159.51,62.47,159.51,62Z"/><path class="cls-2" d="M173.79,64.59a1.68,1.68,0,0,1-.12.58,2.07,2.07,0,0,1-.35.59,1.83,1.83,0,0,1-.6.45,1.9,1.9,0,0,1-.83.18,2.31,2.31,0,0,1-.93-.21,2.05,2.05,0,0,1-.78-.61,2.46,2.46,0,0,0-.18.6h-.4v-2h.4a4,4,0,0,0,.3.82,1.89,1.89,0,0,0,.54.66,1.34,1.34,0,0,0,.85.28,1,1,0,0,0,.71-.24.85.85,0,0,0,.19-1,.9.9,0,0,0-.24-.28,3.11,3.11,0,0,0-.43-.27l-.62-.29a5,5,0,0,1-.88-.51,2.43,2.43,0,0,1-.52-.5,1.74,1.74,0,0,1-.24-.46,1.49,1.49,0,0,1-.07-.44,1.58,1.58,0,0,1,.21-.78,1.72,1.72,0,0,1,.63-.63,1.82,1.82,0,0,1,.95-.24,1.75,1.75,0,0,1,.79.18,2,2,0,0,1,.65.5,2.53,2.53,0,0,0,.14-.51h.41V62.1h-.41q-.43-1.35-1.51-1.35a.92.92,0,0,0-.63.21.67.67,0,0,0-.24.53.7.7,0,0,0,.15.45,1.3,1.3,0,0,0,.39.32c.16.09.42.22.78.39a10.59,10.59,0,0,1,1,.54,2.26,2.26,0,0,1,.63.57A1.37,1.37,0,0,1,173.79,64.59Z"/><path class="cls-2" d="M184.45,66.28h-3v-.4a1.65,1.65,0,0,0,.57-.08.4.4,0,0,0,.25-.21,1.13,1.13,0,0,0,.06-.41v-3.7a.74.74,0,0,0-.16-.54,1.08,1.08,0,0,0-.72-.16v-.4h3v.4a1.68,1.68,0,0,0-.56.07.41.41,0,0,0-.25.21,1.24,1.24,0,0,0-.06.41v3.7a1.14,1.14,0,0,0,.06.4.41.41,0,0,0,.24.22,1.51,1.51,0,0,0,.57.08Z"/><path class="cls-2" d="M197.81,62.06h-.41a1.71,1.71,0,0,0-.24-.81.76.76,0,0,0-.4-.32,1.69,1.69,0,0,0-.49-.06h-.75v4.31a1.23,1.23,0,0,0,.05.4.39.39,0,0,0,.24.22,1.49,1.49,0,0,0,.56.08v.4h-3v-.4a1,1,0,0,0,.7-.16.74.74,0,0,0,.16-.54V60.87h-.62a2.77,2.77,0,0,0-.61.06.76.76,0,0,0-.43.32,1.52,1.52,0,0,0-.21.81H192V60.39h5.82Z"/><path class="cls-2" d="M211.36,60.78a1,1,0,0,0-.4.11,1.08,1.08,0,0,0-.31.3c-.11.14-.27.36-.47.68l-1.24,1.92v1.39a1.09,1.09,0,0,0,.05.38.38.38,0,0,0,.23.22,1.36,1.36,0,0,0,.57.09v.4h-3v-.4a1.63,1.63,0,0,0,.56-.08.4.4,0,0,0,.25-.21,1.13,1.13,0,0,0,.06-.41V63.87l-1.48-2.46,0-.06,0,0a1.31,1.31,0,0,0-.34-.41.91.91,0,0,0-.44-.11v-.4h2.76v.4h-.33a.42.42,0,0,0-.2.07.21.21,0,0,0-.07.18.47.47,0,0,0,.05.2,4.77,4.77,0,0,0,.24.44l.92,1.55.88-1.38a1.5,1.5,0,0,0,.28-.66c0-.18-.06-.29-.18-.34a1.4,1.4,0,0,0-.49-.07v-.4h2.14Z"/><path class="cls-2" d="M191.41,52.25h-.59l-.05.08a1.2,1.2,0,0,1-1,.64,1.6,1.6,0,0,1-.9-.29,6,6,0,0,1-1.19-1.36,8.43,8.43,0,0,0,.72-1.41,4.76,4.76,0,0,1,.95-1.62,2.43,2.43,0,0,1,1-.57l.07,0,.13,0v-.85h-4v.88l.16,0h.08c.91.11,1,.49,1,.81a3,3,0,0,1-.25,1,5.49,5.49,0,0,1-.5.95l-2.31-3.2c1.46-.79,2.21-1.64,2.21-2.51a1.78,1.78,0,0,0-.82-1.52,3,3,0,0,0-1.74-.54,2.47,2.47,0,0,0-1.83.74,2.37,2.37,0,0,0-.73,1.69,4.32,4.32,0,0,0,.86,2.32,9.68,9.68,0,0,0-2,1.66,2.92,2.92,0,0,0-.62,1.88,3.09,3.09,0,0,0,.49,1.72,3.45,3.45,0,0,0,2.87,1.55,4.23,4.23,0,0,0,3-1.49,3.63,3.63,0,0,0,2.8,1.49,2.37,2.37,0,0,0,1.45-.46,2.14,2.14,0,0,0,.83-1.23l0-.11.06-.23ZM184.2,46.5a3.62,3.62,0,0,1-.79-1.78,1.12,1.12,0,0,1,.28-.79,1.06,1.06,0,0,1,1.5,0,1.28,1.28,0,0,1,.29.88C185.48,45.4,185,46,184.2,46.5Zm-.94,1.75c.74,1,1.63,2.26,2.64,3.79a2.42,2.42,0,0,1-1.74.88,2.16,2.16,0,0,1-1.62-.8,2.53,2.53,0,0,1-.74-1.71,2.16,2.16,0,0,1,.42-1.2A3.75,3.75,0,0,1,183.26,48.25Z"/><path class="cls-1" d="M226,75a1.42,1.42,0,1,1-1.41,1.41A1.39,1.39,0,0,1,226,75Zm0,.22a1.2,1.2,0,1,0,1.14,1.2,1.16,1.16,0,0,0-1.14-1.2Zm-.26,2h-.25V75.7a3.14,3.14,0,0,1,.45,0,.85.85,0,0,1,.49.12.41.41,0,0,1-.17.71h0c.14,0,.23.15.26.38a1.31,1.31,0,0,0,.1.39h-.26a1.16,1.16,0,0,1-.11-.4.29.29,0,0,0-.34-.28h-.18Zm0-.87h.18c.21,0,.38-.08.38-.27s-.1-.27-.38-.27h-.18Z"/></svg>